<?xml version="1.0" standalone="no"?>
<!DOCTYPE svg PUBLIC "-//W3C//DTD SVG 20010904//EN"
 "http://www.w3.org/TR/2001/REC-SVG-20010904/DTD/svg10.dtd">
<svg version="1.0" xmlns="http://www.w3.org/2000/svg"
 width="128.000000pt" height="128.000000pt" viewBox="0 0 128.000000 128.000000"
 preserveAspectRatio="xMidYMid meet">
<metadata>
Created by potrace 1.14, written by Peter Selinger 2001-2017
</metadata>
<g transform="translate(0.000000,128.000000) scale(0.100000,-0.100000)"
fill="#000000" stroke="none">
<path d="M520 1058 c-110 -17 -226 -115 -253 -215 -7 -29 -19 -48 -32 -53 -11
-5 -34 -14 -52 -20 -47 -18 -102 -76 -131 -138 -70 -154 41 -357 209 -379 l38
-6 -5 40 c-5 46 5 78 35 111 42 44 56 22 15 -24 -35 -40 -29 -108 13 -141 28
-23 32 -23 295 -23 248 0 269 1 285 19 10 10 36 21 59 24 80 13 153 68 196
150 18 33 23 58 22 122 0 69 -3 85 -26 120 -36 56 -79 94 -122 109 -27 9 -42
24 -59 56 -28 56 -66 83 -120 86 -23 1 -45 2 -49 3 -4 1 -10 11 -14 23 -9 30
-71 85 -122 109 -59 28 -118 36 -182 27z"/>
</g>
</svg>
